<svg width="201" height="75" viewBox="0 0 201 75" fill="none" xmlns="http://www.w3.org/2000/svg">
<path d="M18.224 63.056H47.936L46.64 74H0.656L1.76 62.864V13.376L0.128 2.288L18.608 0.799995V56.72L18.224 63.056ZM81.44 74.816C76.096 74.816 71.296 73.888 67.04 72.032C62.784 70.176 59.168 67.616 56.192 64.352C53.216 61.056 50.928 57.168 49.328 52.688C47.76 48.176 46.976 43.28 46.976 38C46.976 32.72 47.744 27.84 49.28 23.36C50.816 18.848 53.04 14.96 55.952 11.696C58.896 8.4 62.512 5.824 66.8 3.96799C71.088 2.112 75.968 1.184 81.44 1.184C86.784 1.184 91.584 2.112 95.84 3.96799C100.096 5.824 103.696 8.4 106.64 11.696C109.616 14.96 111.888 18.848 113.456 23.36C115.056 27.84 115.856 32.72 115.856 38C115.856 43.28 115.088 48.176 113.552 52.688C112.016 57.168 109.776 61.056 106.832 64.352C103.92 67.616 100.32 70.176 96.032 72.032C91.776 73.888 86.912 74.816 81.44 74.816ZM99.104 39.392C99.104 36 98.784 32.72 98.144 29.552C97.504 26.384 96.464 23.584 95.024 21.152C93.584 18.72 91.728 16.768 89.456 15.296C87.184 13.824 84.416 13.088 81.152 13.088C78.08 13.088 75.44 13.744 73.232 15.056C71.024 16.336 69.216 18.064 67.808 20.24C66.4 22.384 65.36 24.864 64.688 27.68C64.048 30.496 63.728 33.408 63.728 36.416C63.728 39.872 64.048 43.2 64.688 46.4C65.36 49.568 66.416 52.384 67.856 54.848C69.296 57.28 71.152 59.232 73.424 60.704C75.696 62.176 78.448 62.912 81.68 62.912C84.752 62.912 87.376 62.256 89.552 60.944C91.76 59.6 93.568 57.84 94.976 55.664C96.416 53.456 97.456 50.944 98.096 48.128C98.768 45.312 99.104 42.4 99.104 39.392ZM126.589 74V13.376L125.005 2.288L143.437 0.799995V24.32L162.205 1.99999H179.869L155.917 30.8L142.957 35.504L155.437 39.632L180.877 74H162.637L143.437 48.08V74H126.589ZM183.672 74V13.376L182.088 2.288L200.568 0.799995V74H183.672Z" fill="white"/>
</svg>
